<svg width="108" height="32" viewBox="0 0 108 32" fill="none" xmlns="http://www.w3.org/2000/svg">
<path d="M104 0H4C1.79086 0 0 1.79086 0 4V28C0 30.2091 1.79086 32 4 32H104C106.209 32 108 30.2091 108 28V4C108 1.79086 106.209 0 104 0Z" fill="black"/>
<path d="M104 0.64C104.891 0.64 105.746 0.993999 106.376 1.62412C107.006 2.25424 107.36 3.10887 107.36 4V28C107.36 28.8911 107.006 29.7458 106.376 30.3759C105.746 31.006 104.891 31.36 104 31.36H4C3.10887 31.36 2.25424 31.006 1.62412 30.3759C0.993999 29.7458 0.64 28.8911 0.64 28V4C0.64 3.10887 0.993999 2.25424 1.62412 1.62412C2.25424 0.993999 3.10887 0.64 4 0.64H104ZM104 0H4C2.93913 0 1.92172 0.421427 1.17157 1.17157C0.421427 1.92172 0 2.93913 0 4V28C0 29.0609 0.421427 30.0783 1.17157 30.8284C1.92172 31.5786 2.93913 32 4 32H104C105.061 32 106.078 31.5786 106.828 30.8284C107.579 30.0783 108 29.0609 108 28V4C108 2.93913 107.579 1.92172 106.828 1.17157C106.078 0.421427 105.061 0 104 0Z" fill="#A6A6A6"/>
<path d="M25.6909 15.4514C25.6688 12.9947 27.7025 11.7995 27.7955 11.7438C26.6437 10.0646 24.8585 9.83516 24.2312 9.81687C22.7319 9.65908 21.2775 10.714 20.5137 10.714C19.7347 10.714 18.5586 9.83211 17.291 9.85803C15.6598 9.88318 14.1338 10.8276 13.2968 12.2942C11.5696 15.2845 12.8578 19.6788 14.5126 22.0959C15.3404 23.2796 16.3077 24.6014 17.5738 24.5549C18.8124 24.5038 19.2751 23.7652 20.7699 23.7652C22.2509 23.7652 22.6854 24.5549 23.9766 24.5251C25.306 24.5038 26.1429 23.336 26.9418 22.1416C27.8984 20.7848 28.2825 19.4486 28.2978 19.38C28.2665 19.3693 25.7161 18.3959 25.6909 15.4514Z" fill="white"/>
<path d="M23.2528 8.22619C23.919 7.39306 24.3749 6.2596 24.2483 5.10938C23.2841 5.15206 22.0782 5.77634 21.3838 6.59118C20.7694 7.30921 20.2206 8.48612 20.3624 9.5929C21.4456 9.6737 22.5577 9.04637 23.2528 8.22619Z" fill="white"/>
<path d="M43.6146 24.3842H41.8835L40.9353 21.4046H37.6394L36.7361 24.3842H35.0508L38.3162 14.2402H40.3331L43.6146 24.3842ZM40.6495 20.1545L39.7919 17.5057C39.7012 17.2351 39.5313 16.5979 39.2805 15.5947H39.25C39.1501 16.0262 38.9893 16.6634 38.7682 17.5057L37.926 20.1545H40.6495Z" fill="white"/>
<path d="M52.0127 20.6374C52.0127 21.8814 51.6765 22.8647 51.0042 23.5865C50.402 24.2291 49.6543 24.55 48.7617 24.55C47.7982 24.55 47.1061 24.2039 46.6846 23.5118H46.6541V27.365H45.029V19.478C45.029 18.696 45.0084 17.8933 44.9688 17.0701H46.398L46.4887 18.2295H46.5192C47.0611 17.3559 47.8836 16.9199 48.9873 16.9199C49.8502 16.9199 50.5705 17.2606 51.1467 17.9429C51.7245 18.6258 52.0127 19.5237 52.0127 20.6374ZM50.3571 20.6968C50.3571 19.9849 50.197 19.398 49.8753 18.9361C49.5239 18.4543 49.0521 18.2135 48.4606 18.2135C48.0597 18.2135 47.6953 18.3476 47.3698 18.6121C47.0436 18.8789 46.8302 19.2272 46.7303 19.6587C46.68 19.8599 46.6548 20.0245 46.6548 20.1541V21.3737C46.6548 21.9058 46.818 22.3547 47.1442 22.7214C47.4704 23.088 47.8942 23.2709 48.4156 23.2709C49.0277 23.2709 49.5041 23.0347 49.8448 22.5636C50.1863 22.0918 50.3571 21.4698 50.3571 20.6968Z" fill="white"/>
<path d="M60.426 20.6374C60.426 21.8814 60.0898 22.8647 59.4167 23.5865C58.8153 24.2291 58.0676 24.55 57.175 24.55C56.2115 24.55 55.5194 24.2039 55.0986 23.5118H55.0681V27.365H53.443V19.478C53.443 18.696 53.4224 17.8933 53.3828 17.0701H54.812L54.9027 18.2295H54.9332C55.4744 17.3559 56.2969 16.9199 57.4014 16.9199C58.2635 16.9199 58.9838 17.2606 59.5616 17.9429C60.1371 18.6258 60.426 19.5237 60.426 20.6374ZM58.7704 20.6968C58.7704 19.9849 58.6095 19.398 58.2879 18.9361C57.9365 18.4543 57.4662 18.2135 56.8739 18.2135C56.4722 18.2135 56.1086 18.3476 55.7824 18.6121C55.4561 18.8789 55.2435 19.2272 55.1436 19.6587C55.0941 19.8599 55.0681 20.0245 55.0681 20.1541V21.3737C55.0681 21.9058 55.2313 22.3547 55.556 22.7214C55.8822 23.0872 56.306 23.2709 56.8289 23.2709C57.441 23.2709 57.9174 23.0347 58.2581 22.5636C58.5996 22.0918 58.7704 21.4698 58.7704 20.6968Z" fill="white"/>
<path d="M69.8322 21.5397C69.8322 22.4026 69.5326 23.1046 68.9312 23.6465C68.2703 24.2388 67.3503 24.5346 66.1681 24.5346C65.0765 24.5346 64.2015 24.3242 63.5391 23.9027L63.9156 22.5481C64.6291 22.9796 65.4119 23.196 66.2649 23.196C66.8769 23.196 67.3533 23.0573 67.6956 22.7814C68.0363 22.5055 68.2063 22.135 68.2063 21.6731C68.2063 21.2615 68.066 20.9147 67.7848 20.6334C67.505 20.3521 67.0378 20.0907 66.3853 19.849C64.6093 19.1866 63.722 18.2163 63.722 16.9403C63.722 16.1064 64.033 15.4227 64.6558 14.8906C65.2762 14.3578 66.104 14.0918 67.1391 14.0918C68.0622 14.0918 68.829 14.2526 69.4411 14.5735L69.0349 15.8983C68.4632 15.5873 67.8168 15.4318 67.0934 15.4318C66.5217 15.4318 66.0751 15.5728 65.7549 15.8533C65.4843 16.1041 65.3486 16.4098 65.3486 16.7719C65.3486 17.1728 65.5034 17.5044 65.8144 17.7651C66.085 18.0059 66.5766 18.2666 67.2901 18.5479C68.1628 18.8993 68.8039 19.3101 69.2163 19.7812C69.6271 20.2507 69.8322 20.8384 69.8322 21.5397Z" fill="white"/>
<path d="M75.2046 18.2902H73.4133V21.8415C73.4133 22.7447 73.7289 23.196 74.3615 23.196C74.6519 23.196 74.8928 23.1708 75.0834 23.1205L75.1283 24.3546C74.8082 24.4743 74.3867 24.5345 73.8645 24.5345C73.2227 24.5345 72.7212 24.3386 72.3591 23.9475C71.9986 23.5558 71.8171 22.8987 71.8171 21.9756V18.2886H70.75V17.069H71.8171V15.7298L73.4133 15.248V17.069H75.2046V18.2902Z" fill="white"/>
<path d="M83.2854 20.6664C83.2854 21.7907 82.9638 22.7137 82.322 23.4356C81.6489 24.1788 80.7555 24.5492 79.6419 24.5492C78.5687 24.5492 77.7142 24.1933 77.0769 23.4813C76.4397 22.7694 76.1211 21.8707 76.1211 20.7876C76.1211 19.6541 76.4489 18.7257 77.1067 18.0038C77.763 17.2812 78.6487 16.9199 79.7623 16.9199C80.8356 16.9199 81.6992 17.2759 82.3509 17.9886C82.9744 18.6799 83.2854 19.5725 83.2854 20.6664ZM81.5993 20.719C81.5993 20.0444 81.4553 19.4658 81.1633 18.9833C80.8226 18.3994 80.3355 18.1083 79.7044 18.1083C79.0512 18.1083 78.5549 18.4002 78.2142 18.9833C77.9223 19.4666 77.7782 20.0543 77.7782 20.7494C77.7782 21.424 77.9223 22.0026 78.2142 22.4843C78.5656 23.0682 79.0565 23.3594 79.6899 23.3594C80.3104 23.3594 80.7975 23.0621 81.1489 22.4691C81.4484 21.9774 81.5993 21.3928 81.5993 20.719Z" fill="white"/>
<path d="M88.5696 18.4993C88.4088 18.4696 88.2373 18.4543 88.0574 18.4543C87.4857 18.4543 87.0436 18.67 86.7326 19.1022C86.462 19.4834 86.3263 19.9651 86.3263 20.5467V24.3846H84.702L84.7172 19.3736C84.7172 18.5305 84.6966 17.763 84.6562 17.0708H86.0717L86.1312 18.4703H86.1762C86.3477 17.9894 86.6183 17.6021 86.9887 17.3117C87.3508 17.0503 87.7418 16.9199 88.1633 16.9199C88.3135 16.9199 88.4492 16.9306 88.5696 16.9496V18.4993Z" fill="white"/>
<path d="M95.8364 20.3813C95.8364 20.6725 95.8173 20.9179 95.7769 21.1184H90.9016C90.9206 21.841 91.1562 22.3937 91.609 22.7748C92.0198 23.1155 92.5511 23.2862 93.2036 23.2862C93.9254 23.2862 94.584 23.1711 95.1763 22.9402L95.4309 24.0683C94.7387 24.3702 93.9216 24.5203 92.9787 24.5203C91.8445 24.5203 90.9542 24.1865 90.3063 23.5195C89.6599 22.8525 89.3359 21.9569 89.3359 20.8333C89.3359 19.7304 89.637 18.8119 90.24 18.0793C90.8711 17.2973 91.7241 16.9062 92.7973 16.9062C93.8515 16.9062 94.6495 17.2973 95.1915 18.0793C95.6206 18.7006 95.8364 19.4689 95.8364 20.3813ZM94.2867 19.9598C94.2974 19.4781 94.1914 19.0619 93.9712 18.7105C93.6899 18.2585 93.2577 18.0328 92.6761 18.0328C92.1448 18.0328 91.7126 18.2531 91.3826 18.6952C91.112 19.0466 90.9511 19.4682 90.9016 19.959H94.2867V19.9598Z" fill="white"/>
<path d="M40.8802 11.7622H40.0349V10.5013H36.6571V11.7622H35.7977L35.7695 9.78983H36.1816C36.3859 9.59259 36.5491 9.30612 36.6712 8.93043C36.7933 8.55238 36.872 8.12503 36.9072 7.64836L37.041 5.37305H40.2744V9.78983H40.926L40.8802 11.7622ZM37.189 9.78983H39.3868V6.09157H37.8899L37.8053 7.53565C37.7419 8.50072 37.5365 9.25212 37.189 9.78983Z" fill="white"/>
<path d="M41.7128 8.5606C41.7128 8.18725 41.7868 7.85147 41.9347 7.55326C42.0826 7.25271 42.2905 7.02259 42.5581 6.86292C42.8258 6.7009 43.1334 6.61989 43.4809 6.61989C43.9952 6.61989 44.412 6.78543 44.7313 7.11652C45.053 7.4476 45.2268 7.88669 45.2526 8.4338L45.2561 8.63457C45.2561 9.01026 45.1833 9.34604 45.0377 9.6419C44.8945 9.93776 44.6879 10.1667 44.4178 10.3287C44.1502 10.4907 43.8402 10.5718 43.488 10.5718C42.9503 10.5718 42.5194 10.3933 42.1954 10.0364C41.8737 9.67712 41.7128 9.19928 41.7128 8.60287V8.5606ZM42.5687 8.63457C42.5687 9.0267 42.6497 9.3343 42.8117 9.55737C42.9738 9.77809 43.1992 9.88845 43.488 9.88845C43.7768 9.88845 44.001 9.77574 44.1607 9.55033C44.3227 9.32491 44.4037 8.995 44.4037 8.5606C44.4037 8.17551 44.3204 7.87026 44.1537 7.64484C43.9893 7.41942 43.7651 7.30671 43.4809 7.30671C43.2015 7.30671 42.9796 7.41825 42.8153 7.64132C42.6509 7.86204 42.5687 8.19312 42.5687 8.63457Z" fill="white"/>
<path d="M47.9062 9.88845C48.1199 9.88845 48.2971 9.82623 48.438 9.70178C48.5789 9.57733 48.6541 9.42353 48.6634 9.24038H49.47C49.4606 9.47754 49.3867 9.69943 49.2481 9.90606C49.1096 10.1103 48.9217 10.2724 48.6846 10.3921C48.4474 10.5119 48.1915 10.5718 47.9167 10.5718C47.3837 10.5718 46.9611 10.3992 46.6488 10.054C46.3365 9.70882 46.1803 9.23216 46.1803 8.624V8.53594C46.1803 7.95596 46.3353 7.49221 46.6453 7.14469C46.9552 6.79482 47.3779 6.61989 47.9132 6.61989C48.3664 6.61989 48.7351 6.75256 49.0192 7.01789C49.3057 7.28088 49.4559 7.62723 49.47 8.05693H48.6634C48.6541 7.83856 48.5789 7.65893 48.438 7.51804C48.2995 7.37715 48.1222 7.30671 47.9062 7.30671C47.6291 7.30671 47.4154 7.40768 47.2652 7.60962C47.1149 7.80921 47.0386 8.11329 47.0362 8.52186V8.65922C47.0362 9.07249 47.1102 9.38126 47.2581 9.58555C47.4084 9.78749 47.6244 9.88845 47.9062 9.88845Z" fill="white"/>
<path d="M53.4761 7.37011H52.2398V10.5013H51.384V7.37011H50.1618V6.69033H53.4761V7.37011Z" fill="white"/>
<path d="M55.7845 9.2756L56.5594 6.69033H57.4717L55.9571 11.0789C55.7247 11.72 55.3302 12.0405 54.7737 12.0405C54.6492 12.0405 54.5119 12.0194 54.3616 11.9771V11.3149L54.5236 11.3255C54.7396 11.3255 54.9017 11.2856 55.0097 11.2057C55.12 11.1283 55.2069 10.9968 55.2703 10.8113L55.3936 10.4837L54.0552 6.69033H54.978L55.7845 9.2756Z" fill="white"/>
<path d="M61.5588 10.5013H60.7029V7.38068H59.2165V10.5013H58.3607V6.69033H61.5588V10.5013Z" fill="white"/>
<path d="M66.058 10.5013H65.2021V8.96213H63.7193V10.5013H62.8634V6.69033H63.7193V8.27883H65.2021V6.69033H66.058V10.5013Z" fill="white"/>
<path d="M67.1724 8.5606C67.1724 8.18725 67.2464 7.85147 67.3943 7.55326C67.5422 7.25271 67.75 7.02259 68.0177 6.86292C68.2854 6.7009 68.593 6.61989 68.9405 6.61989C69.4547 6.61989 69.8715 6.78543 70.1909 7.11652C70.5126 7.4476 70.6863 7.88669 70.7122 8.4338L70.7157 8.63457C70.7157 9.01026 70.6429 9.34604 70.4973 9.6419C70.3541 9.93776 70.1474 10.1667 69.8774 10.3287C69.6097 10.4907 69.2998 10.5718 68.9476 10.5718C68.4098 10.5718 67.979 10.3933 67.6549 10.0364C67.3332 9.67712 67.1724 9.19928 67.1724 8.60287V8.5606ZM68.0283 8.63457C68.0283 9.0267 68.1093 9.3343 68.2713 9.55737C68.4333 9.77809 68.6587 9.88845 68.9476 9.88845C69.2364 9.88845 69.4606 9.77574 69.6203 9.55033C69.7823 9.32491 69.8633 8.995 69.8633 8.5606C69.8633 8.17551 69.78 7.87026 69.6132 7.64484C69.4489 7.41942 69.2246 7.30671 68.9405 7.30671C68.6611 7.30671 68.4392 7.41825 68.2748 7.64132C68.1105 7.86204 68.0283 8.19312 68.0283 8.63457Z" fill="white"/>
<path d="M74.0223 10.5013V6.69033H75.5685C76.0898 6.69033 76.4866 6.78191 76.759 6.96506C77.0314 7.14587 77.1676 7.40651 77.1676 7.74698C77.1676 7.92309 77.1124 8.08159 77.002 8.22247C76.894 8.36101 76.7332 8.46785 76.5195 8.54299C76.7684 8.59465 76.9656 8.69914 77.1112 8.85646C77.2568 9.01378 77.3296 9.19928 77.3296 9.41296C77.3296 9.76753 77.1981 10.0376 76.9351 10.2231C76.6745 10.4086 76.2988 10.5013 75.808 10.5013H74.0223ZM74.8782 8.87759V9.82505H75.8151C76.2542 9.82505 76.4737 9.66773 76.4737 9.35309C76.4737 9.03609 76.2506 8.87759 75.8045 8.87759H74.8782ZM74.8782 8.26474H75.5826C76.0687 8.26474 76.3117 8.1215 76.3117 7.83504C76.3117 7.53448 76.0816 7.3795 75.6213 7.37011H74.8782V8.26474Z" fill="white"/>
</svg>
