<svg width="108" height="32" viewBox="0 0 108 32" fill="none" xmlns="http://www.w3.org/2000/svg">
<path d="M104 0H4C1.79086 0 0 1.79086 0 4V28C0 30.2091 1.79086 32 4 32H104C106.209 32 108 30.2091 108 28V4C108 1.79086 106.209 0 104 0Z" fill="black"/>
<path d="M104 0.64C104.891 0.64 105.746 0.993999 106.376 1.62412C107.006 2.25424 107.36 3.10887 107.36 4V28C107.36 28.8911 107.006 29.7458 106.376 30.3759C105.746 31.006 104.891 31.36 104 31.36H4C3.10887 31.36 2.25424 31.006 1.62412 30.3759C0.993999 29.7458 0.64 28.8911 0.64 28V4C0.64 3.10887 0.993999 2.25424 1.62412 1.62412C2.25424 0.993999 3.10887 0.64 4 0.64H104ZM104 0H4C2.93913 0 1.92172 0.421427 1.17157 1.17157C0.421427 1.92172 0 2.93913 0 4V28C0 29.0609 0.421427 30.0783 1.17157 30.8284C1.92172 31.5786 2.93913 32 4 32H104C105.061 32 106.078 31.5786 106.828 30.8284C107.579 30.0783 108 29.0609 108 28V4C108 2.93913 107.579 1.92172 106.828 1.17157C106.078 0.421427 105.061 0 104 0Z" fill="#A6A6A6"/>
<path d="M54.5129 17.3997C53.8411 17.4029 53.1853 17.605 52.6283 17.9805C52.0713 18.356 51.638 18.8881 51.3831 19.5096C51.1282 20.1312 51.0632 20.8143 51.1962 21.4728C51.3291 22.1312 51.6542 22.7356 52.1304 23.2095C52.6065 23.6834 53.2123 24.0056 53.8714 24.1355C54.5305 24.2654 55.2133 24.1971 55.8337 23.9393C56.454 23.6815 56.9841 23.2457 57.357 22.687C57.7299 22.1282 57.9289 21.4715 57.9289 20.7997C57.9354 20.3501 57.8514 19.9037 57.6818 19.4872C57.5122 19.0707 57.2606 18.6925 56.9419 18.3753C56.6231 18.0581 56.2438 17.8082 55.8265 17.6406C55.4092 17.473 54.9625 17.3911 54.5129 17.3997ZM54.5129 22.8637C54.0997 22.8926 53.6875 22.7965 53.3296 22.588C52.9718 22.3795 52.685 22.0681 52.5065 21.6945C52.328 21.3208 52.266 20.902 52.3286 20.4926C52.3912 20.0832 52.5756 19.7022 52.8576 19.3989C53.1397 19.0957 53.5065 18.8843 53.9103 18.7923C54.3141 18.7003 54.7362 18.7319 55.1218 18.883C55.5074 19.0341 55.8387 19.2976 56.0725 19.6395C56.3063 19.9813 56.4319 20.3856 56.4329 20.7997C56.4458 21.0621 56.406 21.3245 56.3158 21.5712C56.2257 21.818 56.0871 22.0443 55.9082 22.2366C55.7292 22.429 55.5136 22.5836 55.2739 22.6913C55.0343 22.799 54.7755 22.8576 54.5129 22.8637ZM47.0649 17.3997C46.3928 17.4013 45.7362 17.602 45.1781 17.9766C44.62 18.3512 44.1855 18.8827 43.9294 19.5041C43.6733 20.1255 43.6071 20.8089 43.7392 21.4679C43.8713 22.1269 44.1957 22.732 44.6715 23.2067C45.1473 23.6814 45.7532 24.0044 46.4125 24.1349C47.0718 24.2655 47.755 24.1977 48.3758 23.9401C48.9966 23.6826 49.5272 23.2468 49.9004 22.6878C50.2737 22.1289 50.4729 21.4718 50.4729 20.7997C50.4794 20.3501 50.3954 19.9037 50.2258 19.4872C50.0562 19.0707 49.8046 18.6925 49.4859 18.3753C49.1671 18.0581 48.7878 17.8082 48.3705 17.6406C47.9532 17.473 47.5065 17.3911 47.0569 17.3997H47.0649ZM47.0649 22.8637C46.6515 22.8942 46.2386 22.7996 45.8798 22.5921C45.521 22.3847 45.2329 22.074 45.0531 21.7006C44.8734 21.3271 44.8102 20.9082 44.8718 20.4984C44.9335 20.0885 45.1171 19.7067 45.3987 19.4027C45.6804 19.0986 46.047 18.8864 46.451 18.7936C46.8549 18.7009 47.2775 18.7319 47.6635 18.8827C48.0496 19.0334 48.3814 19.2969 48.6156 19.6388C48.8499 19.9807 48.9757 20.3852 48.9769 20.7997C48.9897 21.0621 48.95 21.3245 48.8598 21.5712C48.7697 21.818 48.6311 22.0443 48.4522 22.2366C48.2732 22.429 48.0576 22.5836 47.8179 22.6913C47.5783 22.799 47.3195 22.8576 47.0569 22.8637H47.0649ZM38.1929 18.4477V19.8877H41.6489C41.5947 20.5659 41.3127 21.2059 40.8489 21.7037C40.5031 22.0559 40.0874 22.3318 39.6286 22.5137C39.1698 22.6955 38.678 22.7794 38.1849 22.7597C37.1664 22.7597 36.1897 22.3551 35.4696 21.635C34.7494 20.9149 34.3449 19.9381 34.3449 18.9197C34.3449 17.9013 34.7494 16.9246 35.4696 16.2044C36.1897 15.4843 37.1664 15.0797 38.1849 15.0797C39.1591 15.0638 40.0999 15.4349 40.8009 16.1117L41.8169 15.0957C41.3436 14.6165 40.7791 14.2372 40.1566 13.9802C39.534 13.7233 38.8663 13.5939 38.1929 13.5997C37.4817 13.572 36.7722 13.6882 36.107 13.9413C35.4417 14.1944 34.8344 14.5791 34.3215 15.0725C33.8085 15.5659 33.4004 16.1578 33.1217 16.8127C32.8429 17.4675 32.6992 18.172 32.6992 18.8837C32.6992 19.5954 32.8429 20.2999 33.1217 20.9547C33.4004 21.6096 33.8085 22.2015 34.3215 22.6949C34.8344 23.1883 35.4417 23.5731 36.107 23.8261C36.7722 24.0792 37.4817 24.1954 38.1929 24.1677C38.8776 24.1986 39.5611 24.0826 40.1972 23.8273C40.8334 23.572 41.4075 23.1834 41.8809 22.6877C42.719 21.7668 43.1665 20.5563 43.1289 19.3117C43.1314 19.0085 43.1047 18.7057 43.0489 18.4077L38.1929 18.4477ZM74.4409 19.5677C74.2322 18.9539 73.8421 18.4179 73.3221 18.0308C72.8021 17.6436 72.1767 17.4236 71.5289 17.3997C71.0913 17.3988 70.6581 17.4878 70.2563 17.6609C69.8544 17.8341 69.4923 18.0879 69.1924 18.4065C68.8925 18.7252 68.6611 19.102 68.5126 19.5136C68.364 19.9252 68.3015 20.363 68.3289 20.7997C68.3191 21.2468 68.3996 21.6913 68.5656 22.1067C68.7315 22.522 68.9794 22.8996 69.2945 23.217C69.6096 23.5343 69.9855 23.7849 70.3996 23.9538C70.8138 24.1226 71.2577 24.2063 71.7049 24.1997C72.2645 24.2027 72.8161 24.0669 73.3103 23.8044C73.8046 23.542 74.226 23.161 74.5369 22.6957L73.3769 21.8957C73.2037 22.1843 72.9586 22.4231 72.6655 22.5885C72.3725 22.754 72.0414 22.8406 71.7049 22.8397C71.3583 22.8529 71.0158 22.7616 70.7219 22.5775C70.428 22.3934 70.1963 22.1252 70.0569 21.8077L74.6089 19.9277L74.4409 19.5677ZM69.8009 20.7037C69.7846 20.4563 69.818 20.2081 69.8989 19.9737C69.9798 19.7393 70.1066 19.5233 70.272 19.3386C70.4374 19.1538 70.638 19.0039 70.8621 18.8976C71.0861 18.7914 71.3291 18.7309 71.5769 18.7197C71.8349 18.7027 72.0923 18.7619 72.317 18.8899C72.5417 19.0179 72.7239 19.2091 72.8409 19.4397L69.8009 20.7037ZM66.1049 23.9997H67.6009V13.9997H66.1049V23.9997ZM63.6569 18.1597H63.6009C63.3754 17.9076 63.0992 17.706 62.7904 17.5682C62.4815 17.4303 62.1471 17.3593 61.8089 17.3597C60.9346 17.4021 60.1102 17.7792 59.5064 18.413C58.9027 19.0467 58.5659 19.8884 58.5659 20.7637C58.5659 21.639 58.9027 22.4807 59.5064 23.1144C60.1102 23.7482 60.9346 24.1253 61.8089 24.1677C62.1479 24.1734 62.484 24.1047 62.7936 23.9665C63.1032 23.8283 63.3788 23.6239 63.6009 23.3677H63.6489V23.8557C63.6489 25.1597 62.9529 25.8557 61.8329 25.8557C61.4598 25.847 61.0978 25.7274 60.793 25.5123C60.4881 25.2972 60.2541 24.9962 60.1209 24.6477L58.8169 25.1917C59.0623 25.7888 59.4806 26.2989 60.0179 26.6567C60.5553 27.0145 61.1873 27.2036 61.8329 27.1997C63.5849 27.1997 65.0329 26.1677 65.0329 23.6557V17.5997H63.6569V18.1597ZM61.9449 22.8637C61.4288 22.8182 60.9485 22.5811 60.5987 22.199C60.2488 21.817 60.0548 21.3177 60.0548 20.7997C60.0548 20.2817 60.2488 19.7824 60.5987 19.4004C60.9485 19.0183 61.4288 18.7812 61.9449 18.7357C62.2007 18.7488 62.4514 18.813 62.682 18.9245C62.9127 19.036 63.1187 19.1926 63.2879 19.3849C63.4572 19.5772 63.5862 19.8015 63.6674 20.0445C63.7486 20.2875 63.7804 20.5443 63.7609 20.7997C63.7827 21.0563 63.7523 21.3146 63.6714 21.559C63.5905 21.8035 63.4609 22.029 63.2904 22.2219C63.1199 22.4149 62.9121 22.5712 62.6794 22.6815C62.4468 22.7918 62.1942 22.8538 61.9369 22.8637H61.9449ZM81.4489 13.9997H77.8729V23.9997H79.3689V20.2077H81.4569C81.8832 20.2383 82.3113 20.1808 82.7145 20.0387C83.1176 19.8966 83.4872 19.6729 83.8001 19.3817C84.113 19.0905 84.3625 18.7379 84.5332 18.346C84.7038 17.954 84.7919 17.5312 84.7919 17.1037C84.7919 16.6762 84.7038 16.2534 84.5332 15.8614C84.3625 15.4695 84.113 15.1169 83.8001 14.8257C83.4872 14.5345 83.1176 14.3108 82.7145 14.1687C82.3113 14.0266 81.8832 13.9691 81.4569 13.9997H81.4489ZM81.4489 18.7997H79.3609V15.3917H81.4809C81.936 15.3917 82.3725 15.5725 82.6943 15.8943C83.0161 16.2161 83.1969 16.6526 83.1969 17.1077C83.1969 17.5628 83.0161 17.9993 82.6943 18.3211C82.3725 18.6429 81.936 18.8237 81.4809 18.8237L81.4489 18.7997ZM90.6729 17.3597C90.1282 17.3272 89.586 17.4544 89.1127 17.7259C88.6394 17.9973 88.2558 18.4012 88.0089 18.8877L89.3369 19.4397C89.4678 19.1984 89.6661 19.0003 89.9075 18.8697C90.149 18.739 90.4232 18.6813 90.6969 18.7037C90.8868 18.6815 91.0792 18.6974 91.2629 18.7504C91.4466 18.8033 91.618 18.8924 91.7669 19.0123C91.9158 19.1322 92.0394 19.2805 92.1304 19.4487C92.2214 19.6168 92.278 19.8014 92.2969 19.9917V20.0957C91.8164 19.8413 91.2805 19.7094 90.7369 19.7117C89.3049 19.7117 87.8569 20.5117 87.8569 21.9597C87.871 22.2685 87.9469 22.5712 88.0801 22.8501C88.2132 23.1291 88.401 23.3784 88.6322 23.5835C88.8634 23.7886 89.1334 23.9453 89.4262 24.0443C89.719 24.1432 90.0286 24.1825 90.3369 24.1597C90.7136 24.1868 91.0907 24.1119 91.4285 23.943C91.7663 23.7741 92.0525 23.5173 92.2569 23.1997H92.3049V23.9997H93.7449V20.1517C93.7449 18.3997 92.4169 17.3837 90.7129 17.3837L90.6729 17.3597ZM90.4889 22.8397C90.0009 22.8397 89.3209 22.5917 89.3209 21.9917C89.3209 21.1917 90.1689 20.9277 90.9209 20.9277C91.3961 20.916 91.8658 21.032 92.2809 21.2637C92.2308 21.6968 92.026 22.0973 91.704 22.3913C91.3821 22.6853 90.9647 22.8531 90.5289 22.8637L90.4889 22.8397ZM98.9929 17.5997L97.2809 21.9357H97.2329L95.4569 17.5997H93.8569L96.5209 23.6637L95.0009 27.0317H96.5609L100.657 17.5997H98.9929ZM85.5449 23.9997H87.0409V13.9997H85.5449V23.9997Z" fill="white"/>
<path d="M33.6876 11.4151H33.0956V9.81512H33.5996C33.8294 9.57159 34.003 9.28059 34.108 8.96266C34.2131 8.64473 34.2471 8.30762 34.2076 7.97512V5.59912H37.4076V9.80712H37.9436V11.4071H37.3516V10.3991H33.6876V11.4151ZM34.7996 7.99912C34.837 8.64443 34.678 9.28592 34.3436 9.83912H36.7436V6.19112H34.7996V7.99912ZM42.7276 9.77512C42.2599 10.2402 41.6272 10.5013 40.9676 10.5013C40.3081 10.5013 39.6753 10.2402 39.2076 9.77512C38.753 9.29394 38.4998 8.65707 38.4998 7.99512C38.4998 7.33317 38.753 6.6963 39.2076 6.21512C39.4381 5.98291 39.7123 5.79862 40.0144 5.67285C40.3165 5.54709 40.6404 5.48234 40.9676 5.48234C41.2948 5.48234 41.6188 5.54709 41.9209 5.67285C42.2229 5.79862 42.4971 5.98291 42.7276 6.21512C43.184 6.69538 43.4385 7.33259 43.4385 7.99512C43.4385 8.65764 43.184 9.29485 42.7276 9.77512ZM39.6636 9.37512C40.01 9.72002 40.4788 9.91366 40.9676 9.91366C41.4564 9.91366 41.9253 9.72002 42.2716 9.37512C42.6134 8.99833 42.8027 8.50783 42.8027 7.99912C42.8027 7.49041 42.6134 6.9999 42.2716 6.62312C41.9253 6.27822 41.4564 6.08458 40.9676 6.08458C40.4788 6.08458 40.01 6.27822 39.6636 6.62312C39.3218 6.9999 39.1325 7.49041 39.1325 7.99912C39.1325 8.50783 39.3218 8.99833 39.6636 9.37512ZM46.5436 10.5031C46.2134 10.5097 45.8852 10.4493 45.5789 10.3257C45.2725 10.2021 44.9944 10.0178 44.7612 9.78383C44.528 9.54988 44.3446 9.27115 44.2219 8.96444C44.0993 8.65772 44.04 8.32936 44.0476 7.99912C44.04 7.66888 44.0993 7.34052 44.2219 7.0338C44.3446 6.72708 44.528 6.44836 44.7612 6.21441C44.9944 5.98046 45.2725 5.79613 45.5789 5.67251C45.8852 5.54889 46.2134 5.48855 46.5436 5.49512C46.8784 5.48683 47.2106 5.55451 47.5155 5.69307C47.8203 5.83163 48.0898 6.03747 48.3036 6.29512L47.8716 6.71112C47.7136 6.51052 47.5099 6.35065 47.2775 6.24487C47.045 6.1391 46.7907 6.09049 46.5356 6.10312C46.2901 6.09673 46.0458 6.14024 45.8175 6.23099C45.5892 6.32175 45.3818 6.45787 45.2076 6.63112C44.8608 7.01016 44.6684 7.50533 44.6684 8.01912C44.6684 8.53291 44.8608 9.02808 45.2076 9.40712C45.3818 9.58037 45.5892 9.71649 45.8175 9.80724C46.0458 9.898 46.2901 9.9415 46.5356 9.93512C46.8172 9.9326 47.0947 9.8674 47.3479 9.74424C47.6012 9.62108 47.8238 9.44307 47.9996 9.22312L48.4316 9.65512C48.2139 9.91921 47.9408 10.1322 47.6316 10.2791C47.2901 10.4338 46.9184 10.5103 46.5436 10.5031ZM50.9436 10.3991H50.3276V6.19112H48.9836V5.59912H52.2796V6.19112H50.9436V10.3991ZM56.5196 5.59912L54.7036 9.64712C54.6309 9.88657 54.4857 10.0975 54.2879 10.2509C54.0902 10.4042 53.8496 10.4924 53.5996 10.5031C53.4343 10.501 53.271 10.4656 53.1196 10.3991L53.2796 9.83112C53.3768 9.88773 53.4871 9.91806 53.5996 9.91912C53.7172 9.92798 53.8346 9.90002 53.9356 9.83912C54.032 9.75753 54.1063 9.65298 54.1516 9.53512L54.3276 9.15112L52.7276 5.60712H53.4556L54.6396 8.35912L55.7916 5.59912H56.5196ZM57.2156 10.3991V5.59912H60.6876V10.3991H60.0716V6.19112H57.8316V10.3991H57.2156ZM61.7836 10.3991V5.59912H62.3996V7.65512H64.7996V5.59912H65.4156V10.3991H64.7996V8.23112H62.3996V10.3991H61.7836ZM70.4476 9.77512C69.9799 10.2402 69.3472 10.5013 68.6876 10.5013C68.0281 10.5013 67.3953 10.2402 66.9276 9.77512C66.4731 9.29394 66.2198 8.65707 66.2198 7.99512C66.2198 7.33317 66.4731 6.6963 66.9276 6.21512C67.1581 5.98291 67.4323 5.79862 67.7344 5.67285C68.0365 5.54709 68.3604 5.48234 68.6876 5.48234C69.0148 5.48234 69.3388 5.54709 69.6409 5.67285C69.9429 5.79862 70.2171 5.98291 70.4476 6.21512C70.904 6.69538 71.1585 7.33259 71.1585 7.99512C71.1585 8.65764 70.904 9.29485 70.4476 9.77512ZM67.3836 9.37512C67.73 9.72002 68.1988 9.91366 68.6876 9.91366C69.1764 9.91366 69.6453 9.72002 69.9916 9.37512C70.3334 8.99833 70.5227 8.50783 70.5227 7.99912C70.5227 7.49041 70.3334 6.9999 69.9916 6.62312C69.6453 6.27822 69.1764 6.08458 68.6876 6.08458C68.1988 6.08458 67.73 6.27822 67.3836 6.62312C67.0418 6.9999 66.8525 7.49041 66.8525 7.99912C66.8525 8.50783 67.0418 8.99833 67.3836 9.37512ZM73.6716 10.3991V5.59912H75.4076C75.7681 5.59231 76.1174 5.72402 76.3836 5.96712C76.5173 6.08313 76.6239 6.2271 76.6957 6.38884C76.7676 6.55059 76.8031 6.72615 76.7996 6.90312C76.8034 7.11637 76.742 7.32569 76.6236 7.50312C76.5062 7.67546 76.3426 7.8113 76.1516 7.89512C76.3837 7.97194 76.5872 8.11691 76.7356 8.31112C76.8895 8.50712 76.9714 8.74998 76.9676 8.99912C76.9717 9.18354 76.9351 9.3666 76.8605 9.53529C76.7858 9.70397 76.6749 9.85414 76.5356 9.97512C76.2571 10.2321 75.8906 10.3724 75.5116 10.3671L73.6716 10.3991ZM74.2876 7.65512H75.4076C75.5122 7.65948 75.6165 7.64099 75.7132 7.60092C75.8099 7.56085 75.8968 7.50018 75.9676 7.42312C76.0385 7.35889 76.0956 7.28106 76.1357 7.19426C76.1758 7.10746 76.198 7.01348 76.201 6.91791C76.204 6.82235 76.1877 6.72716 76.1531 6.63802C76.1185 6.54889 76.0663 6.46764 75.9996 6.39912C75.9328 6.3235 75.8501 6.26351 75.7575 6.22342C75.6648 6.18332 75.5645 6.1641 75.4636 6.16712H74.3196L74.2876 7.65512ZM74.2876 9.80712H75.5276C75.636 9.81075 75.7438 9.79041 75.8434 9.74754C75.9429 9.70466 76.0318 9.64033 76.1036 9.55912C76.2447 9.41282 76.3248 9.21832 76.3276 9.01512C76.3276 8.80294 76.2433 8.59946 76.0933 8.44943C75.9433 8.2994 75.7398 8.21512 75.5276 8.21512H74.3116L74.2876 9.80712Z" fill="white"/>
<path fill-rule="evenodd" clip-rule="evenodd" d="M40.9676 5.56234C40.651 5.56234 40.3375 5.625 40.0451 5.74671C39.7531 5.86829 39.488 6.04639 39.2651 6.27078C38.825 6.73702 38.5798 7.35393 38.5798 7.99512C38.5798 8.63622 38.8249 9.25305 39.2649 9.71927C39.7175 10.1689 40.3296 10.4213 40.9676 10.4213C41.6057 10.4213 42.2178 10.1689 42.6704 9.7192C43.1122 9.2539 43.3585 8.63676 43.3585 7.99512C43.3585 7.3534 43.1121 6.73618 42.6702 6.27086C42.4473 6.04644 42.1822 5.8683 41.8901 5.74671C41.5978 5.625 41.2843 5.56234 40.9676 5.56234ZM39.9837 5.599C40.2955 5.46918 40.6299 5.40234 40.9676 5.40234C41.3054 5.40234 41.6398 5.46918 41.9516 5.599C42.2634 5.72882 42.5464 5.91906 42.7844 6.15876L42.7856 6.16C43.2561 6.65513 43.5185 7.31208 43.5185 7.99512C43.5185 8.67815 43.2561 9.33509 42.7856 9.83023L42.7841 9.83187C42.3014 10.3119 41.6483 10.5813 40.9676 10.5813C40.2869 10.5813 39.6339 10.3118 39.1512 9.83184L39.1494 9.83008C38.6808 9.33405 38.4198 8.6775 38.4198 7.99512C38.4198 7.31274 38.6809 6.65621 39.1495 6.16018L39.1508 6.15874C39.3888 5.91904 39.6718 5.72882 39.9837 5.599ZM68.6876 5.56234C68.371 5.56234 68.0575 5.625 67.7652 5.74671C67.4732 5.86828 67.2081 6.04637 66.9851 6.27074C66.545 6.73699 66.2998 7.35391 66.2998 7.99512C66.2998 8.63622 66.5449 9.25305 66.9849 9.71928C67.4375 10.1689 68.0496 10.4213 68.6876 10.4213C69.3257 10.4213 69.9378 10.1688 70.3905 9.71915C70.8322 9.25385 71.0785 8.63673 71.0785 7.99512C71.0785 7.35341 70.8321 6.7362 70.3903 6.27088C70.1673 6.04645 69.9022 5.86831 69.6101 5.74671C69.3178 5.625 69.0043 5.56234 68.6876 5.56234ZM67.7037 5.599C68.0155 5.46918 68.3499 5.40234 68.6876 5.40234C69.0254 5.40234 69.3598 5.46918 69.6716 5.599C69.9834 5.72882 70.2664 5.91906 70.5044 6.15876L70.5056 6.16C70.9761 6.65514 71.2385 7.31208 71.2385 7.99512C71.2385 8.67815 70.9761 9.33509 70.5056 9.83023L70.5041 9.83187C70.0214 10.3118 69.3683 10.5813 68.6876 10.5813C68.0069 10.5813 67.3539 10.3118 66.8712 9.83184L66.8694 9.83008C66.4008 9.33405 66.1398 8.6775 66.1398 7.99512C66.1398 7.31274 66.4009 6.65621 66.8695 6.16018L66.8708 6.15874C67.1088 5.91904 67.3918 5.72882 67.7037 5.599ZM47.4824 5.7659C47.1885 5.63234 46.8683 5.5671 46.5456 5.57509L46.542 5.57518C46.2226 5.56883 45.9051 5.62712 45.6088 5.7467C45.3125 5.86627 45.0435 6.04458 44.8179 6.27089C44.5923 6.49719 44.4148 6.76681 44.2962 7.0635C44.1776 7.36019 44.1202 7.67783 44.1276 7.99727L44.1277 8.00097C44.1203 8.32041 44.1776 8.63804 44.2962 8.93474C44.4148 9.23143 44.5923 9.50105 44.8179 9.72735C45.0435 9.95365 45.3125 10.132 45.6088 10.2515C45.9051 10.3711 46.2226 10.4295 46.542 10.4231L46.5436 10.5031L46.5452 10.4231C46.9078 10.4301 47.2675 10.3561 47.5979 10.2066C47.8744 10.0751 48.121 9.8889 48.3228 9.65947L48.0048 9.34148C47.8315 9.53936 47.6201 9.70085 47.3829 9.81619C47.1192 9.94444 46.8303 10.0124 46.537 10.0151C46.2809 10.0217 46.0261 9.97625 45.7879 9.88158C45.5496 9.78683 45.333 9.64471 45.1512 9.46383L45.1485 9.46118C44.7882 9.0674 44.5884 8.5529 44.5884 8.01912C44.5884 7.48533 44.7883 6.9709 45.1486 6.57711L45.1511 6.57434C45.333 6.39346 45.5496 6.25141 45.7879 6.15665C46.0253 6.06227 46.2793 6.01684 46.5347 6.02307C46.8015 6.01034 47.0675 6.06142 47.3106 6.17206C47.5279 6.27093 47.7212 6.41481 47.8781 6.59381L48.1937 6.28993C47.9959 6.06779 47.7536 5.8892 47.4824 5.7659ZM46.5437 10.5831C46.2031 10.5897 45.8648 10.5274 45.5489 10.3999C45.2326 10.2723 44.9454 10.0819 44.7046 9.8403C44.4637 9.59871 44.2743 9.31088 44.1477 8.99414C44.0212 8.67797 43.96 8.33953 43.9676 7.99912C43.96 7.65871 44.0212 7.32027 44.1477 7.0041C44.2743 6.68736 44.4637 6.39952 44.7046 6.15793C44.9454 5.91634 45.2326 5.72598 45.5489 5.59832C45.8647 5.47089 46.203 5.40857 46.5434 5.4151C46.8897 5.4068 47.2333 5.47692 47.5486 5.62024C47.8644 5.7638 48.1436 5.97707 48.3652 6.24402L48.4126 6.3012L47.8635 6.83004L47.8088 6.76062C47.6587 6.57005 47.4651 6.41817 47.2443 6.31769C47.0235 6.2172 46.7819 6.17103 46.5396 6.18302L46.5335 6.18332C46.2988 6.17722 46.0653 6.21857 45.8471 6.30533C45.6294 6.39186 45.4316 6.52152 45.2654 6.68651C44.9328 7.05062 44.7484 7.52594 44.7484 8.01912C44.7484 8.51229 44.9328 8.98762 45.2654 9.35173C45.4316 9.51672 45.6294 9.64638 45.8471 9.7329C46.0653 9.81966 46.2988 9.86125 46.5335 9.85514L46.5349 9.85512C46.8046 9.85271 47.0704 9.79026 47.3129 9.6723C47.5555 9.55434 47.7687 9.38383 47.9371 9.17316L47.993 9.10333L48.5396 9.64994L48.4934 9.70601C48.2682 9.97915 47.9857 10.1995 47.666 10.3514L47.6646 10.352C47.3128 10.5114 46.9298 10.5903 46.5437 10.5831ZM76.3297 6.02619C76.0786 5.79691 75.7491 5.67268 75.4091 5.6791L75.4076 5.67912H73.7516V10.3177L75.5102 10.2871L75.5127 10.2871C75.8712 10.2921 76.2179 10.1594 76.4814 9.91631L76.4831 9.9147C76.6135 9.80142 76.7174 9.66085 76.7873 9.50291C76.8572 9.34497 76.8915 9.17357 76.8876 9.00089L76.8876 8.99792C76.8911 8.76711 76.8152 8.5421 76.6727 8.36051L76.6721 8.3597C76.5334 8.17826 76.3433 8.04283 76.1265 7.97107L75.9287 7.90559L76.1195 7.82186C76.2966 7.74414 76.4483 7.61821 76.5573 7.45845C76.6665 7.29462 76.7231 7.10139 76.7196 6.90453V6.90155C76.7229 6.7363 76.6898 6.57237 76.6226 6.42134C76.5555 6.2703 76.456 6.13587 76.3312 6.02754L76.3297 6.02619ZM76.4369 5.90739C76.1558 5.65107 75.7872 5.51213 75.4069 5.51912H73.5916V10.4805L75.5105 10.4471L75.5118 10.4471C75.9104 10.4523 76.2958 10.3048 76.589 10.0347C76.7367 9.90618 76.8544 9.74673 76.9336 9.56767C77.0128 9.3887 77.0518 9.19451 77.0476 8.99885L77.0476 9.00031L76.9676 8.99912L77.0476 8.99735L77.0476 8.99885C77.0513 8.73208 76.9635 8.47207 76.7989 8.26211C76.6765 8.10216 76.5191 7.97359 76.3397 7.88568C76.4778 7.79876 76.5971 7.68405 76.6897 7.54817L76.6902 7.54751C76.8173 7.35694 76.8834 7.1322 76.8796 6.90318L76.8796 6.90468L76.7996 6.90312L76.8796 6.90171L76.8796 6.90318C76.8831 6.715 76.8453 6.52835 76.7689 6.35635C76.6923 6.18422 76.579 6.03097 76.4369 5.90739ZM34.1276 5.51912H37.4876V9.72712H38.0236V11.4871H37.2716V10.4791H33.7676V11.4951H33.0156V9.73512H33.5648C33.775 9.50531 33.9343 9.23353 34.0321 8.93756C34.1335 8.63075 34.1663 8.30542 34.1282 7.98455L34.1276 7.97985V5.51912ZM34.2876 5.67912V7.97043C34.3276 8.31302 34.2922 8.66023 34.184 8.98776C34.0753 9.31681 33.8957 9.61798 33.6578 9.87002L33.6341 9.89512H33.1756V11.3351H33.6076V10.3191H37.4316V11.3271H37.8636V9.88712H37.3276V5.67912H34.2876ZM48.9036 5.51912H52.3596V6.27112H51.0236V10.4791H50.2476V6.27112H48.9036V5.51912ZM49.0636 5.67912V6.11112H50.4076V10.3191H50.8636V6.11112H52.1996V5.67912H49.0636ZM55.7383 5.51912H56.6432L54.7787 9.6753C54.7007 9.92857 54.5464 10.1517 54.3369 10.3141C54.1261 10.4776 53.8696 10.5716 53.6031 10.583L53.5986 10.5832C53.4225 10.581 53.2487 10.5432 53.0874 10.4724L53.0238 10.4444L53.2306 9.71001L53.3199 9.76199C53.4051 9.81161 53.5018 9.83819 53.6004 9.83912L53.6056 9.83917C53.7046 9.84662 53.8033 9.82392 53.8889 9.77385C53.9726 9.70157 54.0372 9.60971 54.077 9.5064L54.0788 9.50172L54.2397 9.15087L52.6037 5.52712H53.5083L54.6385 8.1541L55.7383 5.51912ZM55.8449 5.67912L54.6407 8.56414L53.403 5.68712H52.8515L54.4155 9.15137L54.2254 9.56624C54.1751 9.69566 54.0933 9.81046 53.9873 9.90018L53.9824 9.90432L53.9769 9.90762C53.8625 9.97664 53.7295 10.0086 53.5963 9.99908C53.5048 9.9979 53.4147 9.9795 53.3306 9.94517L53.2161 10.3518C53.3384 10.397 53.4677 10.4212 53.5984 10.4231C53.8311 10.4126 54.0548 10.3304 54.2389 10.1877C54.4236 10.0445 54.5592 9.84748 54.6271 9.62388L54.6286 9.61901L56.3961 5.67912H55.8449ZM57.1356 5.51912H60.7676V10.4791H59.9916V6.27112H57.9116V10.4791H57.1356V5.51912ZM57.2956 5.67912V10.3191H57.7516V6.11112H60.1516V10.3191H60.6076V5.67912H57.2956ZM61.7036 5.51912H62.4796V7.57512H64.7196V5.51912H65.4956V10.4791H64.7196V8.31112H62.4796V10.4791H61.7036V5.51912ZM61.8636 5.67912V10.3191H62.3196V8.15112H64.8796V10.3191H65.3356V5.67912H64.8796V7.73512H62.3196V5.67912H61.8636ZM39.6072 6.56643C39.9685 6.2066 40.4577 6.00458 40.9676 6.00458C41.4776 6.00458 41.9667 6.2066 42.3281 6.56643L42.331 6.5693C42.6861 6.9608 42.8827 7.47053 42.8827 7.99912C42.8827 8.5277 42.686 9.03736 42.3309 9.42887L42.3281 9.43188C41.9668 9.79171 41.4776 9.99366 40.9676 9.99366C40.4577 9.99366 39.9685 9.79163 39.6072 9.4318L39.6636 9.37512L39.6044 9.42887C39.2492 9.03736 39.0525 8.5277 39.0525 7.99912C39.0525 7.47053 39.2492 6.96087 39.6044 6.56937L39.6072 6.56643ZM39.7215 9.31986C40.0527 9.64893 40.5007 9.83366 40.9676 9.83366C41.4346 9.83366 41.8825 9.64893 42.2137 9.31986C42.5413 8.95799 42.7227 8.48728 42.7227 7.99912C42.7227 7.51096 42.5413 7.04024 42.2137 6.67838C41.8825 6.3493 41.4346 6.16458 40.9676 6.16458C40.5007 6.16458 40.0527 6.3493 39.7215 6.67838C39.3939 7.04024 39.2125 7.51096 39.2125 7.99912C39.2125 8.48728 39.3939 8.95799 39.7215 9.31986ZM67.3272 6.56643C67.6885 6.2066 68.1777 6.00458 68.6876 6.00458C69.1976 6.00458 69.6867 6.2066 70.0481 6.56643L70.051 6.5693C70.4061 6.9608 70.6027 7.47053 70.6027 7.99912C70.6027 8.5277 70.406 9.03736 70.0509 9.42887L70.0481 9.43188C69.6868 9.79171 69.1976 9.99366 68.6876 9.99366C68.1777 9.99366 67.6885 9.79163 67.3272 9.4318L67.3836 9.37512L67.3244 9.42887C66.9692 9.03736 66.7725 8.5277 66.7725 7.99912C66.7725 7.47053 66.9692 6.96087 67.3244 6.56937L67.3272 6.56643ZM67.4415 9.31987C67.7727 9.64894 68.2207 9.83366 68.6876 9.83366C69.1546 9.83366 69.6025 9.64894 69.9337 9.31987C70.2613 8.958 70.4427 8.48728 70.4427 7.99912C70.4427 7.51095 70.2613 7.04023 69.9337 6.67837C69.6025 6.3493 69.1546 6.16458 68.6876 6.16458C68.2207 6.16458 67.7727 6.3493 67.4415 6.67837C67.1139 7.04023 66.9325 7.51095 66.9325 7.99912C66.9325 8.48728 67.1139 8.958 67.4415 9.31987ZM75.4625 6.08712C75.5747 6.08394 75.6862 6.10541 75.7892 6.15C75.8921 6.19451 75.9839 6.26098 76.0583 6.34474C76.1319 6.42066 76.1894 6.51054 76.2277 6.60908C76.2662 6.70822 76.2843 6.8141 76.281 6.92041C76.2776 7.02671 76.253 7.13126 76.2084 7.22781C76.1643 7.32326 76.1016 7.40897 76.024 7.47994C75.9458 7.56429 75.8502 7.63077 75.7439 7.67483C75.6369 7.71913 75.5217 7.7397 75.406 7.73512H74.2059L74.2413 6.08712H75.4625ZM75.7257 6.29684C75.6438 6.2614 75.5552 6.24442 75.466 6.24708L75.4636 6.24712H74.3979L74.3694 7.57512H75.411C75.5039 7.579 75.5966 7.56263 75.6826 7.52701C75.7686 7.4914 75.8458 7.43746 75.9087 7.36897L75.9112 7.36629L75.9139 7.36385C75.9768 7.30684 76.0275 7.23775 76.0631 7.16071C76.0987 7.08367 76.1184 7.00024 76.121 6.91541C76.1237 6.83059 76.1092 6.74609 76.0785 6.66697C76.0478 6.58785 76.0015 6.51573 75.9423 6.45491L75.9396 6.45217C75.8805 6.38534 75.8076 6.33227 75.7257 6.29684ZM34.7196 6.11112H36.8236V9.91912H34.2018L34.2752 9.79774C34.6011 9.25837 34.7562 8.63292 34.7198 8.00374L34.7195 7.99912L34.7196 6.11112ZM34.8796 6.27112V7.99682C34.9147 8.6108 34.7764 9.22131 34.482 9.75912H36.6636V6.27112H34.8796ZM74.2328 8.13512H75.5276C75.761 8.13512 75.9848 8.22783 76.1499 8.39286C76.3149 8.55789 76.4076 8.78173 76.4076 9.01512L76.4076 9.01624C76.4045 9.23922 76.3168 9.45266 76.1624 9.61345C76.083 9.70286 75.9849 9.77372 75.875 9.82101C75.765 9.86836 75.646 9.89093 75.5263 9.88712H74.2064L74.2328 8.13512ZM74.3904 8.29512L74.3688 9.72712H75.5303C75.6269 9.73036 75.723 9.71227 75.8117 9.67406C75.9005 9.63585 75.9797 9.5785 76.0437 9.50612L76.046 9.50354C76.1728 9.372 76.2449 9.19722 76.2476 9.01454C76.2475 8.82379 76.1716 8.64089 76.0367 8.506C75.9017 8.37097 75.7186 8.29512 75.5276 8.29512H74.3904Z" fill="white"/>
<path d="M8.35134 6.03256C8.09059 6.34545 7.95898 6.746 7.98333 7.15256V24.8486C7.95898 25.2551 8.09059 25.6557 8.35134 25.9686L8.40734 26.0246L18.3193 16.1206V15.8886L8.40734 5.97656L8.35134 6.03256Z" fill="url(#paint0_linear_5957_19572)"/>
<path d="M21.6003 19.4242L18.3203 16.1202V15.8882L21.6003 12.5762L21.6723 12.6162L25.6003 14.8482C26.7203 15.4802 26.7203 16.5202 25.6003 17.1602L21.6883 19.3842L21.6003 19.4242Z" fill="url(#paint1_linear_5957_19572)"/>
<path d="M21.6956 19.376L18.3196 16L8.35156 25.968C8.57985 26.1687 8.87108 26.2833 9.17491 26.2921C9.47874 26.3008 9.77608 26.2032 10.0156 26.016L21.7036 19.376" fill="url(#paint2_linear_5957_19572)"/>
<path d="M21.6957 12.6236L10.0077 5.98365C9.76827 5.79646 9.47092 5.69881 9.16709 5.70757C8.86326 5.71634 8.57204 5.83097 8.34375 6.03165L18.3197 15.9996L21.6957 12.6236Z" fill="url(#paint3_linear_5957_19572)"/>
<path opacity="0.2" d="M21.5996 19.3027L10.0076 25.9027C9.77659 26.0754 9.49595 26.1687 9.20756 26.1687C8.91918 26.1687 8.63853 26.0754 8.40756 25.9027L8.35156 25.9587L8.40756 26.0147C8.63801 26.1887 8.91885 26.2827 9.20756 26.2827C9.49627 26.2827 9.77712 26.1887 10.0076 26.0147L21.6956 19.3747L21.5996 19.3027Z" fill="black"/>
<path opacity="0.12" d="M8.35134 25.856C8.09059 25.5431 7.95898 25.1426 7.98333 24.736V24.856C7.95898 25.2626 8.09059 25.6631 8.35134 25.976L8.40734 25.92L8.35134 25.856ZM25.5993 17.04L21.5993 19.304L21.6713 19.376L25.5993 17.152C25.8222 17.0473 26.0135 16.8857 26.154 16.6834C26.2945 16.4811 26.3791 16.2454 26.3993 16C26.3543 16.223 26.2588 16.4326 26.1202 16.6129C25.9815 16.7932 25.8033 16.9393 25.5993 17.04Z" fill="black"/>
<path opacity="0.25" d="M10.0086 6.09595L25.6006 14.96C25.8045 15.0606 25.9827 15.2067 26.1214 15.387C26.2601 15.5673 26.3556 15.777 26.4006 16C26.3803 15.7545 26.2957 15.5188 26.1552 15.3165C26.0148 15.1143 25.8234 14.9527 25.6006 14.848L10.0086 5.98395C8.88856 5.35195 7.97656 5.87995 7.97656 7.15995V7.27995C8.00056 5.99195 8.89656 5.46395 10.0086 6.09595Z" fill="white"/>
<defs>
<linearGradient id="paint0_linear_5957_19572" x1="17.4393" y1="6.96856" x2="4.01533" y2="20.3926" gradientUnits="userSpaceOnUse">
<stop stop-color="#00A0FF"/>
<stop offset="0.01" stop-color="#00A1FF"/>
<stop offset="0.26" stop-color="#00BEFF"/>
<stop offset="0.51" stop-color="#00D2FF"/>
<stop offset="0.76" stop-color="#00DFFF"/>
<stop offset="1" stop-color="#00E3FF"/>
</linearGradient>
<linearGradient id="paint1_linear_5957_19572" x1="27.0643" y1="16.0002" x2="7.71232" y2="16.0002" gradientUnits="userSpaceOnUse">
<stop stop-color="#FFE000"/>
<stop offset="0.41" stop-color="#FFBD00"/>
<stop offset="0.78" stop-color="#FFA500"/>
<stop offset="1" stop-color="#FF9C00"/>
</linearGradient>
<linearGradient id="paint2_linear_5957_19572" x1="19.8636" y1="17.84" x2="1.65556" y2="36.04" gradientUnits="userSpaceOnUse">
<stop stop-color="#FF3A44"/>
<stop offset="1" stop-color="#C31162"/>
</linearGradient>
<linearGradient id="paint3_linear_5957_19572" x1="5.83975" y1="0.143649" x2="13.9677" y2="8.27165" gradientUnits="userSpaceOnUse">
<stop stop-color="#32A071"/>
<stop offset="0.07" stop-color="#2DA771"/>
<stop offset="0.48" stop-color="#15CF74"/>
<stop offset="0.8" stop-color="#06E775"/>
<stop offset="1" stop-color="#00F076"/>
</linearGradient>
</defs>
</svg>
