<svg width="28" height="28" viewBox="0 0 28 28" fill="none" xmlns="http://www.w3.org/2000/svg">
<path fill-rule="evenodd" clip-rule="evenodd" d="M0 14C0 6.26801 6.26801 0 14 0C21.732 0 28 6.26801 28 14C28 21.732 21.732 28 14 28C6.26801 28 0 21.732 0 14Z" fill="#2F5097"/>
<mask id="mask0_5957_19598" style="mask-type:alpha" maskUnits="userSpaceOnUse" x="0" y="0" width="28" height="28">
<path fill-rule="evenodd" clip-rule="evenodd" d="M0 14C0 6.26801 6.26801 0 14 0C21.732 0 28 6.26801 28 14C28 21.732 21.732 28 14 28C6.26801 28 0 21.732 0 14Z" fill="#6E8AC6"/>
</mask>
<g mask="url(#mask0_5957_19598)">
<path fill-rule="evenodd" clip-rule="evenodd" d="M13.9986 6.5332C11.9708 6.5332 11.7163 6.54207 10.9198 6.57831C10.1249 6.61472 9.58235 6.74056 9.10759 6.92521C8.61649 7.11592 8.19991 7.37103 7.78489 7.78622C7.36955 8.20124 7.11443 8.61782 6.9231 9.10876C6.73799 9.58368 6.61198 10.1264 6.57621 10.921C6.54058 11.7175 6.53125 11.9721 6.53125 13.9999C6.53125 16.0278 6.54027 16.2815 6.57636 17.078C6.61292 17.8729 6.73876 18.4154 6.92325 18.8902C7.11412 19.3813 7.36924 19.7979 7.78442 20.2129C8.19929 20.6282 8.61587 20.884 9.10665 21.0747C9.58173 21.2593 10.1245 21.3852 10.9192 21.4216C11.7157 21.4578 11.97 21.4667 13.9977 21.4667C16.0257 21.4667 16.2794 21.4578 17.0758 21.4216C17.8707 21.3852 18.414 21.2593 18.889 21.0747C19.38 20.884 19.7959 20.6282 20.2108 20.2129C20.6261 19.7979 20.8812 19.3813 21.0726 18.8904C21.2561 18.4154 21.3821 17.8727 21.4195 17.0781C21.4552 16.2817 21.4646 16.0278 21.4646 13.9999C21.4646 11.9721 21.4552 11.7176 21.4195 10.9212C21.3821 10.1263 21.2561 9.58368 21.0726 9.10892C20.8812 8.61783 20.6261 8.20124 20.2108 7.78622C19.7955 7.37088 19.3801 7.11576 18.8886 6.92521C18.4126 6.74056 17.8697 6.61472 17.0748 6.57831C16.2783 6.54207 16.0247 6.5332 13.9963 6.5332H13.9986ZM13.3303 7.87882C13.5291 7.87851 13.7509 7.87882 14.0001 7.87882C15.9937 7.87882 16.23 7.88598 17.0173 7.92175C17.7453 7.95504 18.1404 8.07669 18.4036 8.17889C18.752 8.31422 19.0005 8.476 19.2616 8.73734C19.523 8.99868 19.6848 9.24757 19.8204 9.59602C19.9226 9.85891 20.0444 10.254 20.0775 10.982C20.1133 11.7691 20.1211 12.0056 20.1211 13.9983C20.1211 15.991 20.1133 16.2274 20.0775 17.0145C20.0443 17.7425 19.9226 18.1377 19.8204 18.4006C19.6851 18.749 19.523 18.9971 19.2616 19.2583C19.0003 19.5196 18.7522 19.6814 18.4036 19.8167C18.1407 19.9194 17.7453 20.0407 17.0173 20.074C16.2301 20.1098 15.9937 20.1176 14.0001 20.1176C12.0063 20.1176 11.77 20.1098 10.9829 20.074C10.2549 20.0404 9.85977 19.9188 9.59641 19.8166C9.24797 19.6813 8.99907 19.5195 8.73774 19.2581C8.4764 18.9968 8.31462 18.7485 8.17898 18.3999C8.07677 18.137 7.95497 17.7419 7.92184 17.0139C7.88606 16.2268 7.87891 15.9903 7.87891 13.9964C7.87891 12.0025 7.88606 11.7673 7.92184 10.9802C7.95513 10.2522 8.07677 9.85704 8.17898 9.59384C8.31431 9.24539 8.4764 8.9965 8.73774 8.73516C8.99907 8.47383 9.24797 8.31205 9.59641 8.1764C9.85962 8.07373 10.2549 7.9524 10.9829 7.91895C11.6717 7.88784 11.9386 7.87851 13.3303 7.87695V7.87882ZM17.9819 9.1175C17.4873 9.1175 17.0859 9.51837 17.0859 10.0132C17.0859 10.5079 17.4873 10.9092 17.9819 10.9092C18.4766 10.9092 18.878 10.5079 18.878 10.0132C18.878 9.51853 18.4766 9.11719 17.9819 9.11719V9.1175ZM13.9985 10.1641C11.8809 10.1641 10.1641 11.8809 10.1641 13.9985C10.1641 16.1161 11.8809 17.8323 13.9985 17.8323C16.1161 17.8323 17.8324 16.1161 17.8324 13.9985C17.8324 11.8809 16.116 10.1641 13.9984 10.1641H13.9985ZM13.9967 11.5117C15.3712 11.5117 16.4856 12.626 16.4856 14.0006C16.4856 15.3751 15.3712 16.4895 13.9967 16.4895C12.6221 16.4895 11.5078 15.3751 11.5078 14.0006C11.5078 12.626 12.6221 11.5117 13.9967 11.5117Z" fill="#F2F2F2"/>
</g>
</svg>
