<svg width="183" height="36" viewBox="0 0 183 36" fill="none" xmlns="http://www.w3.org/2000/svg">
<rect x="0.5" y="0.5" width="182" height="35" rx="4.5" stroke="white"/>
<path d="M135 1H178C180.209 1 182 2.79086 182 5V31C182 33.2091 180.209 35 178 35H135V1Z" fill="#EB5C01"/>
<path d="M24.0024 26.9199L22.6597 22.6475H16.4707L15.1279 26.9199H11.3438L17.4595 9.30518H21.793L27.9209 26.9199H24.0024ZM19.5225 12.6743L17.2642 19.8887H21.8662L19.6079 12.6743H19.5225Z" fill="white"/>
<path d="M33.0479 9.30518V20.3281C33.0479 21.4756 33.3693 22.387 34.0122 23.0625C34.6632 23.7298 35.5747 24.0635 36.7466 24.0635C37.9103 24.0635 38.8136 23.7298 39.4565 23.0625C40.1076 22.387 40.4331 21.4756 40.4331 20.3281V9.30518H44.1196V20.6943C44.1196 22.6475 43.4482 24.2262 42.1055 25.4307C40.7708 26.627 38.9845 27.2251 36.7466 27.2251C34.5005 27.2251 32.7061 26.627 31.3633 25.4307C30.0286 24.2262 29.3613 22.6475 29.3613 20.6943V9.30518H33.0479Z" fill="white"/>
<path d="M54.9595 26.9199H51.2729V12.3447H46.1826V9.30518H60.062V12.3447H54.9595V26.9199Z" fill="white"/>
<path d="M62.8574 11.4536C64.3874 9.81787 66.4585 9 69.0708 9C71.6831 9 73.7502 9.81787 75.272 11.4536C76.8019 13.0894 77.5669 15.311 77.5669 18.1187C77.5669 20.9181 76.8019 23.1357 75.272 24.7715C73.742 26.4072 71.675 27.2251 69.0708 27.2251C66.4585 27.2251 64.3874 26.4072 62.8574 24.7715C61.3356 23.1357 60.5747 20.9181 60.5747 18.1187C60.5747 15.311 61.3356 13.0894 62.8574 11.4536ZM72.5132 13.7119C71.6587 12.6214 70.5112 12.0762 69.0708 12.0762C67.6304 12.0762 66.4788 12.6214 65.6162 13.7119C64.7617 14.8024 64.3345 16.2713 64.3345 18.1187C64.3345 19.9578 64.7617 21.4227 65.6162 22.5132C66.4707 23.5955 67.6222 24.1367 69.0708 24.1367C70.5112 24.1367 71.6587 23.5955 72.5132 22.5132C73.3677 21.4227 73.7949 19.9578 73.7949 18.1187C73.7949 16.2713 73.3677 14.8024 72.5132 13.7119Z" fill="white"/>
<path d="M88.5776 26.9199H84.1343L78.2139 9.30518H82.3398L86.3682 23.1235H86.4536L90.4819 9.30518H94.498L88.5776 26.9199Z" fill="white"/>
<path d="M99.9912 26.9199H96.3047V9.30518H99.9912V26.9199Z" fill="white"/>
<path d="M114.31 23.8682V26.9199H102.921V9.30518H106.607V23.8682H114.31Z" fill="white"/>
<path d="M127.884 23.8682V26.9199H116.495V9.30518H120.182V23.8682H127.884Z" fill="white"/>
<path d="M145.151 11.8809V17.4961H148.325C149.253 17.4961 149.973 17.2479 150.486 16.7515C151.007 16.255 151.267 15.5674 151.267 14.6885C151.267 13.834 150.999 13.1545 150.461 12.6499C149.924 12.1372 149.2 11.8809 148.289 11.8809H145.151ZM145.151 20.1694V26.6147H141.465V9H148.679C150.689 9 152.252 9.50049 153.367 10.5015C154.49 11.4943 155.051 12.8656 155.051 14.6152C155.051 15.7627 154.766 16.7881 154.197 17.6914C153.635 18.5866 152.854 19.2295 151.853 19.6201L155.564 26.6147H151.389L148.105 20.1694H145.151Z" fill="white"/>
<path d="M161.167 9V20.0229C161.167 21.1704 161.488 22.0819 162.131 22.7573C162.782 23.4246 163.694 23.7583 164.866 23.7583C166.029 23.7583 166.933 23.4246 167.576 22.7573C168.227 22.0819 168.552 21.1704 168.552 20.0229V9H172.239V20.3892C172.239 22.3423 171.567 23.9211 170.225 25.1255C168.89 26.3218 167.104 26.9199 164.866 26.9199C162.62 26.9199 160.825 26.3218 159.482 25.1255C158.148 23.9211 157.48 22.3423 157.48 20.3892V9H161.167Z" fill="white"/>
</svg>
