<svg width="28" height="28" viewBox="0 0 28 28" fill="none" xmlns="http://www.w3.org/2000/svg">
<path fill-rule="evenodd" clip-rule="evenodd" d="M14 -1.19209e-07C21.732 -1.19209e-07 28 6.26801 28 14C28 21.732 21.732 28 14 28C6.26801 28 0 21.732 0 14C0 6.26801 6.26801 -1.19209e-07 14 -1.19209e-07Z" fill="#2F5097"/>
<path fill-rule="evenodd" clip-rule="evenodd" d="M17.589 12.1528C17.5317 11.6875 17.3887 11.3222 17.1347 10.9986C16.8049 10.5819 16.3835 10.3324 15.7595 10.1843C15.3529 10.0857 15.1886 10.097 15.0415 10.2313C14.9045 10.3572 14.8778 10.6095 14.9825 10.7729C15.0561 10.8915 15.141 10.934 15.3773 10.9804C15.6918 11.0382 15.9092 11.1133 16.107 11.2264C16.5267 11.4688 16.7221 11.848 16.7431 12.462C16.7528 12.7503 16.7777 12.8389 16.8784 12.9411C17.065 13.128 17.3972 13.0917 17.5381 12.868C17.5898 12.7837 17.5976 12.747 17.6031 12.5513C17.6067 12.4301 17.6015 12.2497 17.589 12.1528V12.1528Z" fill="white"/>
<path fill-rule="evenodd" clip-rule="evenodd" d="M19.233 12.6785C19.1501 11.2529 18.5926 10.106 17.5947 9.2991C17.0325 8.84569 16.3529 8.5339 15.6079 8.38228C15.335 8.32805 14.8326 8.28409 14.7464 8.30923C14.6651 8.33252 14.5501 8.42059 14.4988 8.50023C14.4446 8.58659 14.4323 8.77942 14.4786 8.89096C14.5533 9.07742 14.6922 9.1433 15.0811 9.17732C15.6807 9.22979 16.2992 9.44045 16.7665 9.75233C17.3 10.1074 17.7241 10.5931 17.9985 11.1639C18.2355 11.6542 18.3813 12.3609 18.3772 12.9938C18.3759 13.2226 18.4112 13.3519 18.5033 13.4464C18.6422 13.5917 18.8447 13.6235 19.0235 13.527C19.2216 13.4228 19.2679 13.2399 19.233 12.6785V12.6785Z" fill="white"/>
<path fill-rule="evenodd" clip-rule="evenodd" d="M20.9331 18.2966C20.9056 18.2157 20.8412 18.0907 20.7953 18.019C20.5059 17.5795 18.9508 16.3557 18.1744 15.9555C17.7311 15.7265 17.4026 15.6502 17.1591 15.7219C16.8973 15.7959 16.7594 15.9185 16.3207 16.4668C16.1438 16.6866 15.9624 16.8925 15.9141 16.9248C15.7947 17.0081 15.5604 17.0752 15.395 17.0752C15.0114 17.0729 14.3154 16.823 13.7802 16.4945C13.3644 16.2401 12.8315 15.7844 12.4226 15.3332C11.9402 14.8035 11.6118 14.3362 11.3522 13.8087C11.0169 13.1309 10.9319 12.7168 11.072 12.4138C11.1064 12.3374 11.1524 12.2565 11.173 12.231C11.1937 12.2079 11.4097 12.0298 11.6485 11.8354C12.1171 11.4607 12.1929 11.3751 12.2802 11.1183C12.3905 10.7921 12.3606 10.459 12.1906 10.1236C12.0597 9.86909 11.7174 9.31389 11.4694 8.95533C11.1409 8.48343 10.3232 7.4748 10.16 7.33828C9.86603 7.09771 9.48936 7.05605 9.07356 7.21801C8.63486 7.38921 7.8125 8.05544 7.46105 8.52043C7.14406 8.94145 7.02235 9.23986 7.00396 9.63314C6.98789 9.95699 7.01545 10.0912 7.18543 10.5053C8.51541 13.7532 10.5 16.3465 13.2266 18.4054C14.6508 19.4811 16.1277 20.3 17.6599 20.8599C18.5534 21.186 18.9416 21.2022 19.3987 20.9339C19.5916 20.8182 20.0694 20.3255 20.3359 19.9669C20.7769 19.37 20.94 19.0948 20.9859 18.875C21.0181 18.7246 20.9928 18.4632 20.9331 18.2966V18.2966Z" fill="white"/>
<path fill-rule="evenodd" clip-rule="evenodd" d="M20.906 13.0058C20.8762 12.1995 20.7405 11.5381 20.4574 10.8006C20.1779 10.0753 19.895 9.60193 19.3608 8.96172C18.8557 8.36145 18.4634 8.0187 17.8413 7.63718C16.9733 7.10561 15.9169 6.75384 14.7331 6.6059C14.3293 6.5542 14.238 6.55789 14.1141 6.64054C13.8741 6.7971 13.8773 7.18759 14.1181 7.34181C14.1978 7.39086 14.2685 7.40873 14.5915 7.451C15.0872 7.51774 15.406 7.58064 15.7842 7.68385C17.2675 8.08931 18.4081 8.91809 19.1707 10.1484C19.8088 11.1738 20.0737 12.1994 20.0361 13.5091C20.023 13.9519 20.0325 14.0299 20.1002 14.1363C20.2298 14.3345 20.5717 14.3738 20.747 14.2092C20.8561 14.1089 20.8767 14.0337 20.8982 13.6547C20.9085 13.457 20.9107 13.1651 20.906 13.0058V13.0058Z" fill="white"/>
</svg>
