<svg width="28" height="28" viewBox="0 0 28 28" fill="none" xmlns="http://www.w3.org/2000/svg">
<path fill-rule="evenodd" clip-rule="evenodd" d="M0 14C0 6.26801 6.26801 0 14 0C21.732 0 28 6.26801 28 14C28 21.732 21.732 28 14 28C6.26801 28 0 21.732 0 14Z" fill="#2F5097"/>
<path fill-rule="evenodd" clip-rule="evenodd" d="M14.7303 18.5933C14.7303 18.5933 14.9998 18.5639 15.1378 18.4184C15.2642 18.2851 15.2598 18.0334 15.2598 18.0334C15.2598 18.0334 15.243 16.8583 15.7988 16.6848C16.3466 16.5142 17.05 17.8212 17.7964 18.3238C18.3603 18.7037 18.7883 18.6206 18.7883 18.6206L20.783 18.5933C20.783 18.5933 21.826 18.5302 21.3315 17.7251C21.2906 17.6592 21.043 17.1293 19.8488 16.041C18.5977 14.9018 18.7657 15.086 20.2717 13.1151C21.1891 11.915 21.5558 11.1822 21.4411 10.8689C21.3323 10.5693 20.6574 10.6488 20.6574 10.6488L18.4122 10.6625C18.4122 10.6625 18.2456 10.6402 18.1222 10.7126C18.0017 10.7836 17.9235 10.9492 17.9235 10.9492C17.9235 10.9492 17.5686 11.8777 17.0945 12.6678C16.0946 14.3339 15.6951 14.4221 15.5315 14.3189C15.151 14.0773 15.2459 13.3496 15.2459 12.8327C15.2459 11.2174 15.4957 10.5442 14.7602 10.3699C14.5163 10.3119 14.3366 10.2739 13.7121 10.2674C12.9109 10.2595 12.2331 10.2703 11.8489 10.4545C11.5932 10.5771 11.396 10.851 11.5166 10.8668C11.6648 10.8861 12.0008 10.9557 12.179 11.1937C12.4091 11.5013 12.4011 12.191 12.4011 12.191C12.4011 12.191 12.5333 14.0923 12.0921 14.3282C11.7897 14.4902 11.3749 14.1597 10.4831 12.6477C10.0266 11.8734 9.68181 11.0173 9.68181 11.0173C9.68181 11.0173 9.61535 10.8575 9.4963 10.7714C9.35241 10.6675 9.15155 10.6352 9.15155 10.6352L7.01808 10.6488C7.01808 10.6488 6.69744 10.6574 6.57985 10.7944C6.4754 10.9155 6.57181 11.1672 6.57181 11.1672C6.57181 11.1672 8.24222 15.0036 10.1339 16.9372C11.8686 18.7095 13.8377 18.5933 13.8377 18.5933H14.7303Z" fill="white"/>
</svg>
