<svg width="28" height="28" viewBox="0 0 28 28" fill="none" xmlns="http://www.w3.org/2000/svg">
<path fill-rule="evenodd" clip-rule="evenodd" d="M14 28C21.732 28 28 21.732 28 14C28 6.26801 21.732 0 14 0C6.26801 0 0 6.26801 0 14C0 21.732 6.26801 28 14 28Z" fill="#2F5097"/>
<path fill-rule="evenodd" clip-rule="evenodd" d="M14.4612 21.7884H14.4578C13.0645 21.788 11.6955 21.4384 10.4795 20.7752L6.06641 21.9328L7.24743 17.619C6.51892 16.3564 6.13558 14.9243 6.1362 13.4571C6.13803 8.86713 9.87255 5.13281 14.4611 5.13281C16.6881 5.13377 18.7783 6.00073 20.35 7.5743C21.9218 9.14779 22.7869 11.2393 22.786 13.4637C22.7841 18.0526 19.0511 21.7866 14.4612 21.7884ZM10.6852 19.2682L10.9379 19.4182C12.0002 20.0486 13.218 20.3822 14.4596 20.3827H14.4624C18.2761 20.3827 21.3801 17.2786 21.3816 13.4634C21.3823 11.6145 20.6633 9.87611 19.3569 8.56822C18.0506 7.26033 16.3133 6.5397 14.4651 6.53906C10.6485 6.53906 7.54448 9.64279 7.54297 13.4578C7.54243 14.7652 7.90825 16.0385 8.60088 17.1401L8.7654 17.4019L8.0664 19.9552L10.6852 19.2682ZM18.6545 15.4439C18.6026 15.3571 18.4639 15.3051 18.2559 15.2009C18.0479 15.0968 17.0252 14.5937 16.8345 14.5242C16.6439 14.4548 16.5052 14.4201 16.3665 14.6283C16.2279 14.8365 15.8292 15.3051 15.7079 15.4439C15.5865 15.5827 15.4652 15.6001 15.2573 15.496C15.0493 15.3919 14.379 15.1722 13.5845 14.4635C12.9661 13.912 12.5486 13.2308 12.4273 13.0226C12.306 12.8143 12.4144 12.7018 12.5185 12.5981C12.6121 12.5048 12.7265 12.3551 12.8305 12.2336C12.9345 12.1122 12.9692 12.0254 13.0385 11.8866C13.1079 11.7478 13.0732 11.6263 13.0212 11.5222C12.9692 11.4181 12.5532 10.3942 12.3799 9.97772C12.211 9.57211 12.0395 9.62706 11.9118 9.62065C11.7907 9.61456 11.6518 9.61328 11.5132 9.61328C11.3745 9.61328 11.1491 9.66534 10.9585 9.87359C10.7678 10.0818 10.2305 10.5851 10.2305 11.6089C10.2305 12.6327 10.9758 13.6219 11.0798 13.7607C11.1838 13.8995 12.5466 16.0005 14.6332 16.9015C15.1295 17.1159 15.5169 17.2438 15.8191 17.3397C16.3173 17.498 16.7708 17.4757 17.1292 17.4221C17.5289 17.3624 18.3599 16.919 18.5333 16.4331C18.7065 15.9471 18.7065 15.5306 18.6545 15.4439Z" fill="white"/>
</svg>
